<svg width="48" height="48" viewBox="0 0 48 48" fill="none" xmlns="http://www.w3.org/2000/svg">
<path d="M0 6C0 3.17157 0 1.75736 0.87868 0.87868C1.75736 0 3.17157 0 6 0H42C44.8284 0 46.2426 0 47.1213 0.87868C48 1.75736 48 3.17157 48 6V42C48 44.8284 48 46.2426 47.1213 47.1213C46.2426 48 44.8284 48 42 48H6C3.17157 48 1.75736 48 0.87868 47.1213C0 46.2426 0 44.8284 0 42V6Z" fill="white" fill-opacity="0.8"/>
<path d="M17.75 10.6968C17.676 10.6968 17.6369 10.8247 17.5587 11.0805L15.2179 18.7416C15.1817 18.8598 15.1636 18.919 15.1936 18.9595C15.2236 19 15.2854 19 15.4091 19H20.0909C20.2146 19 20.2764 19 20.3064 18.9595C20.3364 18.919 20.3183 18.8598 20.2821 18.7416L17.9413 11.0805C17.8631 10.8247 17.824 10.6968 17.75 10.6968Z" fill="#543DF5"/>
<path fill-rule="evenodd" clip-rule="evenodd" d="M2 6C2 4.11438 2 3.17157 2.58579 2.58579C3.17157 2 4.11438 2 6 2H42C43.8856 2 44.8284 2 45.4142 2.58579C46 3.17157 46 4.11438 46 6V28C46 29.8856 46 30.8284 45.4142 31.4142C44.8284 32 43.8856 32 42 32H6C4.11438 32 3.17157 32 2.58579 31.4142C2 30.8284 2 29.8856 2 28V6ZM19.971 8.03924C20.024 8.07848 20.0448 8.14669 20.0865 8.28311L25.3421 25.4831C25.4143 25.7197 25.4505 25.838 25.3905 25.919C25.3306 26 25.2069 26 24.9595 26H22.796C22.6534 26 22.5821 26 22.529 25.9608C22.476 25.9215 22.4552 25.8533 22.4135 25.7169L21.0155 21.1416C20.9946 21.0733 20.9842 21.0392 20.9577 21.0196C20.9312 21 20.8955 21 20.8242 21H14.6758C14.6045 21 14.5688 21 14.5423 21.0196C14.5158 21.0392 14.5054 21.0733 14.4845 21.1416L13.0865 25.7169C13.0448 25.8533 13.024 25.9215 12.971 25.9608C12.9179 26 12.8466 26 12.704 26H10.5405C10.2931 26 10.1694 26 10.1095 25.919C10.0495 25.838 10.0857 25.7197 10.1579 25.4831L15.4135 8.28311C15.4552 8.14669 15.476 8.07848 15.529 8.03924C15.5821 8 15.6534 8 15.796 8H19.704C19.8466 8 19.9179 8 19.971 8.03924ZM32 8C31.4477 8 31 8.44772 31 9V10C31 10.5523 31.4477 11 32 11H33C33.5523 11 34 10.5523 34 10V9C34 8.44772 33.5523 8 33 8H32ZM28.4 15C28.2114 15 28.1172 15 28.0586 14.9414C28 14.8828 28 14.7886 28 14.6V13.4C28 13.2114 28 13.1172 28.0586 13.0586C28.1172 13 28.2114 13 28.4 13H33.6C33.7886 13 33.8828 13 33.9414 13.0586C34 13.1172 34 13.2114 34 13.4V23.8C34 23.8943 34 23.9414 34.0293 23.9707C34.0586 24 34.1057 24 34.2 24H37.6C37.7886 24 37.8828 24 37.9414 24.0586C38 24.1172 38 24.2114 38 24.4V25.6C38 25.7886 38 25.8828 37.9414 25.9414C37.8828 26 37.7886 26 37.6 26H27.4C27.2114 26 27.1172 26 27.0586 25.9414C27 25.8828 27 25.7886 27 25.6V24.4C27 24.2114 27 24.1172 27.0586 24.0586C27.1172 24 27.2114 24 27.4 24H30.8C30.8943 24 30.9414 24 30.9707 23.9707C31 23.9414 31 23.8943 31 23.8V15.2C31 15.1057 31 15.0586 30.9707 15.0293C30.9414 15 30.8943 15 30.8 15H28.4Z" fill="#543DF5"/>
<path d="M9.00011 37V43H13.1039V42.0583H10.1278V37H9.00011Z" fill="#543DF5"/>
<path d="M17.9146 37V43H19.0423V37H17.9146Z" fill="#543DF5"/>
<path d="M24.1874 43V37H25.3292L28.4549 41.2292V37H29.5967V43H28.4549L25.3292 38.7708V43H24.1874Z" fill="#543DF5"/>
<path d="M34.6482 37V43H39V42.0583H35.776V40.3625H38.4385V39.4208H35.776V37.9417H39V37H34.6482Z" fill="#543DF5"/>
</svg>
