<svg width="48" height="48" viewBox="0 0 48 48" fill="none" xmlns="http://www.w3.org/2000/svg">
<rect width="48" height="48" rx="3" fill="#245842"/>
<path d="M17.4391 23.848C17.4391 20.6433 15.6029 18 11.8064 18C7.73696 18 6 21.0409 6 24.0585C6 27.1462 7.78659 30 12.0049 30C14.0644 30 15.6773 29.3216 17.0173 27.9181L14.9577 26.2105C14.1141 27.1228 13.1215 27.4503 12.0297 27.4503C10.0943 27.4503 9.10171 26.4444 8.97764 24.924H17.3647C17.4143 24.5497 17.4391 24.1988 17.4391 23.848ZM8.95283 22.7018C9.12652 21.5556 9.97019 20.3392 11.7816 20.3392C13.3448 20.3392 14.5359 21.2281 14.5855 22.7018H8.95283Z" fill="white"/>
<path d="M23.0111 29.7661H25.4677L30.4552 18.2339H27.2295L24.227 26.117L21.2742 18.2339H18.0236L23.0111 29.7661Z" fill="white"/>
<path d="M36.7643 18C34.5311 18 32.7197 18.8187 31.2557 20.4795L33.4145 22.1871C34.3078 21.0643 35.474 20.4561 36.7147 20.4561C38.1291 20.4561 39.0224 21.2281 39.0224 22.4912V22.8187H35.9703C34.5807 22.8187 33.5385 22.9825 32.7197 23.3333C31.5286 23.848 30.8835 24.8772 30.8835 26.2339C30.8835 28.4327 32.7197 30 35.3003 30C36.9132 30 38.3028 29.345 39.0224 28.269L39.2705 29.7661H42V22.4912C42 19.7076 39.9901 18 36.7643 18ZM35.7718 27.614C34.5807 27.614 33.8611 27.0994 33.8611 26.2807C33.8611 25.8596 34.0348 25.5322 34.3574 25.3216C34.7544 25.0409 35.3499 24.924 36.3673 24.924H39.0224C39.0224 26.4211 37.5584 27.614 35.7718 27.614Z" fill="white"/>
</svg>
