<svg width="48" height="48" viewBox="0 0 48 48" fill="none" xmlns="http://www.w3.org/2000/svg">
<rect width="48" height="48" rx="3" fill="#8F68FE"/>
<path d="M16.3242 15.8555L22.6083 9.87797C23.2008 9.31433 23.9873 9 24.8051 9H32.9062C35.4951 9 37.5938 11.0987 37.5938 13.6875V37.125H14.1563C11.5674 37.125 9.46875 35.0263 9.46875 32.4375V24.3364C9.46875 23.5186 9.78308 22.7321 10.3467 22.1395L16.3242 15.8555Z" fill="#FFA834"/>
<path d="M12.1003 12.0066C12.1003 11.7995 12.2682 11.6316 12.4753 11.6316H33.0872C34.1227 11.6316 34.9622 12.4711 34.9622 13.5066V34.4934H13.9753C12.9398 34.4934 12.1003 33.654 12.1003 32.6184V12.0066Z" fill="#8F68FE"/>
<path d="M13.7573 11.6316H20.7721L12.1003 20.3487V13.2988C12.1003 12.378 12.8422 11.6316 13.7573 11.6316Z" fill="#35BDFF"/>
</svg>
